<svg xmlns="http://www.w3.org/2000/svg" viewBox="0 0 85.01 34.34"><g opacity=".2"><path d="M41.58 6.38v.03l.02-.03h-.02z"/><path d="M44.55 0a17.17 17.17 0 1017.19 17.17A17.19 17.19 0 0044.55 0zm15.68 17.17v.89c-.11-.28-.28-.64-.32-.8s-.41-1.06-.41-1.06a2.85 2.85 0 00-.59-.59c-.24-.12-.42-.42-.83-.65a1.71 1.71 0 00-.95-.36c-.35 0-.7-.47-1.12-.71s-.47-.12-.47-.12a4 4 0 01.47.89c0 .18.53.47 1.07.35a5.7 5.7 0 00.53.83c.17.18-.06.36-.42.59a2 2 0 00-.47.36 9.82 9.82 0 01-.95.59c-.17.12-.88.47-1.24.12-.17-.18-.12-.54-.23-.77s-1.36-2.07-2-2.9a3.45 3.45 0 00-.53-.71c-.17-.12.42-.12.42-.12a4.41 4.41 0 00-.06-.71 1.85 1.85 0 01.06-.71l-.77.48c-.18.12-.36-.24-.59-.53a2.47 2.47 0 01-.53-.95c-.06-.3.29-.41.29-.41l.53-.3a4.22 4.22 0 011.07-.06c.41.06 1.06.12 1.06.12s.18-.41-.06-.59a1.79 1.79 0 00-1-.41c-.24.05.11-.3.41-.54l-.66-.12s-.59.3-.77.36a1.54 1.54 0 00-.72.47c-.24.3.09.71-.14.83a4 4 0 01-.58.24 3.55 3.55 0 01-.74 0c-.61 0-.22.55-.06.75l-.47-.58-.35-.82a6.8 6.8 0 00-.74-.47c-.24-.12-1-.54-1-.54l.06.54.68.69h.06l.36.48-.79.06v-.46c-.74-.18-.55-.36-.63-.42l-.56-.4s-.69.12-.87.18-.23.24-.58.36a1.08 1.08 0 00-.64.47 7.34 7.34 0 01-.73.94c-.24.24-.68.18-.86.18a9.54 9.54 0 01-1-.24v-1a2.41 2.41 0 00.06-.74l.52-.08.86-.18.25-.18.37-.47a.51.51 0 01-.19-.73c.15-.2.66-.24.89-.42a2.73 2.73 0 01.6-.29s.41-.36.82-.77a3.87 3.87 0 01.65-.3 6.81 6.81 0 001.19.89 3.44 3.44 0 00.85-.41 1.9 1.9 0 00.12-.71c-.06-.18-.35-.77-.35-.77a6.15 6.15 0 01-.36.53 3.12 3.12 0 00-.29.53s-.83 0-.89-.23-.17-.47-.23-.65-.54-.17-.89 0 .06-.64.06-.64.36-.44.59-.44a7.48 7.48 0 001-.36 7.61 7.61 0 011.24-.38c.29 0 .65.12.83.12h.88l1.29-.1s1.07.4.71.64a3.68 3.68 0 01.59.43c.17.17.6-.16.84-.29a15.64 15.64 0 017.35 13.28zm-28.2-9.25c0 .24-.32.29 0 .89.41.77.06 1.12.06 1.12l-1.19.83c-.17.12-.65.77-.35.59s.65-.35.35.12-.82 1.24-.94 1.54-.71 1-.71 1.36a11.85 11.85 0 00-.18 1.36 3 3 0 01-.19 1.06 15.6 15.6 0 013-8.89.27.27 0 01.15.02zm1.9-2.27a15.7 15.7 0 015-3.11c-.19.23-.41.47-.41.47s-.41 0-1.18.83a9.51 9.51 0 00-.77.83 1.65 1.65 0 01-.53.59 1.94 1.94 0 00-.59.65l-.65.24-.54-.24s-.47.18-.41-.06c.03-.06.05-.13.08-.2zM41.01 7l-.27-.32.23-.53.57.23V5.32l.59-.32.45.64.7.77-.47.36-1.23.23v-.59zm7.73 5.59c.14-.11.59.18.59.18a9.21 9.21 0 011.71.47c.24.18.66.3.77.48a6.76 6.76 0 01.59.88c.06.18.36.83.42 1.07a6 6 0 00.41 1.12c.18.3 1.19 1.6 1.54 2.19l1.07-.18a3.21 3.21 0 01-.24.71c-.12.18-.47.65-.65.89a4.72 4.72 0 01-.77.88c-.35.3-.36.59-.53.83a5.58 5.58 0 00-.42.77s.12 1.18.18 1.42-.41.88-.41.88l-.54.54-.71.94.06.89-.84.65c-.29.23-.24.41-.48.65a5.28 5.28 0 01-1.4.71c-.23.06-1.54.23-1.54.23v-1.12a3.78 3.78 0 00-.36-.94c-.18-.24-.1-.6-.4-.89a1.82 1.82 0 01-.46-.71 2.2 2.2 0 01.06-.71s.24-.65.36-.89a1 1 0 00-.12-.82 3.24 3.24 0 01-.17-1c0-.18-.48-.47-.66-.65s-.11-.42-.11-.65a6 6 0 01-.12-1.18c.06-.42-.53-.12-.89 0s-.59-.12-.59-.48-.65-.06-1.06.18a8.27 8.27 0 01-1.36.41.58.58 0 01-.71-.17 6.47 6.47 0 00-.71-.53 3.84 3.84 0 01-.83-.83 5.86 5.86 0 01-.89-1.54 5.66 5.66 0 010-1 4.4 4.4 0 01.06-.94 3.29 3.29 0 01.42-1 3.79 3.79 0 011-.77c.18-.11.59-.47.59-.7s.24-.36.36-.6.53-.82 1.06-.59a4.75 4.75 0 00.65-.11 8.22 8.22 0 00.88-.36 3.28 3.28 0 01.83-.17 2.92 2.92 0 00.64.18c.18 0 .76-.1.76-.1a8.93 8.93 0 01.26 1c0 .18.18.36.48.48s1.59.47 2.22 0zm6.8 11.59a5.22 5.22 0 01-.12.89l-.28.93a2 2 0 01-.53.83c-.17.12-.47.47-.65.53s-.29-.41-.23-.65a8.74 8.74 0 01.35-.88s.06-.36.12-.6.77-.53.77-.53l.47-.88a1.85 1.85 0 01.06.36zm-26.28-3.52a.79.79 0 01.34.21 2.17 2.17 0 00.65.41c.3.12.42.3.77.47s.24.07.71.6.42.53.53.82a4.44 4.44 0 00.42.77c.12.18.47.3.65.42a1.38 1.38 0 00.65.23c.18 0 .71.54 1 .59s.3.66.3.66l-.3.82-.23.89.23.71a1.3 1.3 0 01-.59.29c-.21 0-.29.14-.53.08a15.74 15.74 0 01-4.6-7.97z" fill="#fff"/></g><path d="M4.31 14.73H2.25V8.52H0v-1.8h6.54v1.8H4.31zm7.51 0H7.74v-5.8h4a1.94 1.94 0 011.35.44 1.42 1.42 0 01.47 1.05 1.27 1.27 0 01-.28.84 1.4 1.4 0 01-.72.48 1.31 1.31 0 01.82.48 1.42 1.42 0 01.31.92 1.49 1.49 0 01-.48 1.13 1.92 1.92 0 01-1.39.46zm-.54-3.65a.44.44 0 00.29-.1.36.36 0 00.11-.26.37.37 0 00-.11-.27.44.44 0 00-.29-.09H9.63v.72zm.08 2.22a.52.52 0 00.33-.11.41.41 0 000-.58.48.48 0 00-.33-.12H9.63v.81zm6.72 1.57a3.07 3.07 0 01-2.34-.87 3.13 3.13 0 010-4.31 3.07 3.07 0 012.3-.88 3.07 3.07 0 012.3.88 2.93 2.93 0 01.86 2.15 3 3 0 01-.82 2.16 3.07 3.07 0 01-2.3.87zm-.92-2a1.14 1.14 0 00.92.4 1.19 1.19 0 00.93-.4 1.57 1.57 0 00.34-1 1.53 1.53 0 00-.34-1 1.16 1.16 0 00-.93-.4 1.11 1.11 0 00-.92.4 1.53 1.53 0 00-.33 1 1.56 1.56 0 00.33.97zm7.12 1.86h-1.76v-5.8h1.84v3l2.07-3h1.86v5.8h-1.85v-3.2zm3.23-7.4a2.47 2.47 0 01-2.1 1.06 2.51 2.51 0 01-2.11-1.06l.79-.64a1.57 1.57 0 001.32.69 1.51 1.51 0 001.33-.69zm9.84 7.4h-4v-5.8h3.89a1.94 1.94 0 011.35.44 1.39 1.39 0 01.47 1.05 1.32 1.32 0 01-.27.84 1.48 1.48 0 01-.72.48 1.28 1.28 0 01.81.48 1.43 1.43 0 01.32.92 1.49 1.49 0 01-.46 1.13 1.94 1.94 0 01-1.39.46zm-.54-3.65a.46.46 0 00.29-.1.35.35 0 00.1-.26.36.36 0 00-.1-.27.46.46 0 00-.29-.09h-1.66v.72zm.07 2.22a.49.49 0 00.33-.11.39.39 0 000-.58.45.45 0 00-.33-.12h-1.73v.81zm5.71 1.43h-1.76v-5.8h1.85v3l2.06-3h1.86v5.8h-1.86v-3.2zm7.8.14a3.8 3.8 0 01-2.73-.87l.82-1.1a3.09 3.09 0 001.91.6q1 0 1-.45c0-.34-.35-.51-1-.51h-1.22v-1.43h1.14q.93 0 .93-.48c0-.12-.08-.23-.25-.31a1.56 1.56 0 00-.66-.12 2.36 2.36 0 00-1.71.63l-.88-1.06a3.38 3.38 0 012.51-1 4.25 4.25 0 012.15.42 1.35 1.35 0 01.76 1.19 1.09 1.09 0 01-.44.86 2.11 2.11 0 01-1.06.48 2 2 0 011.11.41 1.16 1.16 0 01.5 1 1.41 1.41 0 01-.77 1.26 4.07 4.07 0 01-2.11.48zm6.9 0A3.05 3.05 0 0155 14a3 3 0 01-.86-2.16A2.93 2.93 0 0155 9.69a3.43 3.43 0 014.59 0 2.94 2.94 0 01.87 2.15 3 3 0 01-.87 2.16 3.06 3.06 0 01-2.3.87zm-.92-2a1.15 1.15 0 00.92.4 1.19 1.19 0 00.93-.4 1.51 1.51 0 00.34-1 1.48 1.48 0 00-.34-1 1.16 1.16 0 00-.93-.4 1.12 1.12 0 00-.92.4 1.53 1.53 0 00-.33 1 1.56 1.56 0 00.33.97zm9.37 1.86h-4v-5.8h3.94a1.94 1.94 0 011.35.44 1.42 1.42 0 01.47 1.05 1.27 1.27 0 01-.28.84 1.4 1.4 0 01-.72.48 1.31 1.31 0 01.82.48 1.42 1.42 0 01.31.92 1.49 1.49 0 01-.48 1.13 1.92 1.92 0 01-1.41.46zm-.54-3.65a.44.44 0 00.29-.1.36.36 0 00.11-.26.37.37 0 00-.11-.27.44.44 0 00-.29-.09h-1.62v.72zm.08 2.22a.52.52 0 00.33-.11.41.41 0 000-.58.48.48 0 00-.33-.12h-1.7v.81zm3.97-4.37h1.85v1.86h1.91a2.11 2.11 0 011.56.56 1.94 1.94 0 01.55 1.41 1.91 1.91 0 01-.57 1.4 2.08 2.08 0 01-1.54.57h-3.76zm3.49 3.35H71.1v1h1.64a.64.64 0 00.4-.13.43.43 0 00.16-.35.42.42 0 00-.16-.35.58.58 0 00-.4-.17zm4.9 2.45h-1.9v-5.8h1.84zm3.36 0h-1.76v-5.8h1.85v3l2.06-3h1.86v5.8h-1.85v-3.2zm3.23-7.4a2.47 2.47 0 01-2.1 1.06 2.51 2.51 0 01-2.11-1.06l.79-.64a1.57 1.57 0 001.32.69 1.49 1.49 0 001.31-.69zm-51.9 20.21v-1.48h-4.59v-5.79h1.84v4.19h2.16v-4.19h1.8v4.19h.63v3.08zm5.78-1.33a3.2 3.2 0 01-2.27-.84 2.86 2.86 0 01-.9-2.21 3 3 0 01.87-2.16 3 3 0 012.22-.88 2.78 2.78 0 012.13.89 3.28 3.28 0 01.83 2.34v.4h-4.13a1.2 1.2 0 00.47.73 1.55 1.55 0 001 .3 2.69 2.69 0 00.78-.14 1.7 1.7 0 00.66-.35l.78 1.15a2.73 2.73 0 01-1.07.57 4.74 4.74 0 01-1.37.2zm1.12-3.66a1.25 1.25 0 00-.34-.69 1.32 1.32 0 00-1.69 0 1.39 1.39 0 00-.36.7zm4.82 3.51H42.2v-5.79h1.85v2h2.08v-2h1.84v5.79h-1.84v-2.19h-2.08zm8.52 0h-1.83v-4.18h-1.6v-1.61h5v1.61h-1.57zm6.3.15a2.18 2.18 0 01-1.72-.83v2.89H55.3v-8h1.85v.67a2.15 2.15 0 011.72-.82 2.31 2.31 0 011.83.81 3.21 3.21 0 01.71 2.23 3.22 3.22 0 01-.67 2.24 2.31 2.31 0 01-1.87.81zm-.61-1.63a1.2 1.2 0 00.91-.39 1.64 1.64 0 000-2.05 1.19 1.19 0 00-.91-.38 1.45 1.45 0 00-.62.15 1.2 1.2 0 00-.49.38v1.76a1.29 1.29 0 00.49.38 1.45 1.45 0 00.62.15z" fill="#fff"/></svg>