<svg xmlns="http://www.w3.org/2000/svg" viewBox="0 0 85.01 34.34"><title>logo</title><g style="opacity:0.2"><polygon points="41.58 6.38 41.58 6.41 41.6 6.38 41.58 6.38" style="fill:#000"/><path d="M44.81,0A17.17,17.17,0,1,0,62,17.17,17.19,17.19,0,0,0,44.81,0ZM60.49,17.17c0,.3,0,.59,0,.89-.11-.28-.28-.64-.32-.8s-.41-1.06-.41-1.06a2.85,2.85,0,0,0-.59-.59c-.24-.12-.42-.42-.83-.65a1.71,1.71,0,0,0-.95-.36c-.35,0-.7-.47-1.12-.71s-.47-.12-.47-.12a4,4,0,0,1,.47.89c0,.18.53.47,1.07.35a5.7,5.7,0,0,0,.53.83c.17.18-.06.36-.42.59a2,2,0,0,0-.47.36,9.82,9.82,0,0,1-.95.59c-.17.12-.88.47-1.24.12-.17-.18-.12-.54-.23-.77s-1.36-2.07-2-2.9a3.45,3.45,0,0,0-.53-.71c-.17-.12.42-.12.42-.12a4.41,4.41,0,0,0-.06-.71,1.85,1.85,0,0,1,.06-.71l-.77.48c-.18.12-.36-.24-.59-.53a2.47,2.47,0,0,1-.53-.95c-.06-.3.29-.41.29-.41l.53-.3a4.22,4.22,0,0,1,1.07-.06c.41.06,1.06.12,1.06.12s.18-.41-.06-.59a1.79,1.79,0,0,0-1-.41c-.24.05.11-.3.41-.54l-.66-.12s-.59.3-.77.36a1.54,1.54,0,0,0-.72.47c-.24.3.09.71-.14.83a4,4,0,0,1-.58.24,3.55,3.55,0,0,1-.74,0c-.61,0-.22.55-.06.75l-.47-.58-.35-.82a6.8,6.8,0,0,0-.74-.47c-.24-.12-1-.54-1-.54l.06.54.68.69h.06l.36.48-.79.06V9.82c-.74-.18-.55-.36-.63-.42L45.81,9s-.69.12-.87.18-.23.24-.58.36a1.08,1.08,0,0,0-.64.47,7.34,7.34,0,0,1-.73.94c-.24.24-.68.18-.86.18a9.54,9.54,0,0,1-1-.24v-1a2.41,2.41,0,0,0,.06-.74l.52-.08.86-.18.25-.18.37-.47A.51.51,0,0,1,43,7.51c.15-.2.66-.24.89-.42a2.73,2.73,0,0,1,.6-.29s.41-.36.82-.77a3.87,3.87,0,0,1,.65-.3,6.81,6.81,0,0,0,1.19.89A3.44,3.44,0,0,0,48,6.21a1.9,1.9,0,0,0,.12-.71c-.06-.18-.35-.77-.35-.77a6.15,6.15,0,0,1-.36.53,3.12,3.12,0,0,0-.29.53s-.83,0-.89-.23-.17-.47-.23-.65-.54-.17-.89,0,.06-.64.06-.64.36-.44.59-.44a7.48,7.48,0,0,0,1-.36A7.61,7.61,0,0,1,48,3.09c.29,0,.65.12.83.12h.88L51,3.11s1.07.4.71.64a3.68,3.68,0,0,1,.59.43c.17.17.6-.16.84-.29A15.64,15.64,0,0,1,60.49,17.17ZM32.29,7.92c0,.24-.32.29,0,.89.41.77.06,1.12.06,1.12l-1.19.83c-.17.12-.65.77-.35.59s.65-.35.35.12-.82,1.24-.94,1.54-.71,1-.71,1.36a11.85,11.85,0,0,0-.18,1.36,3,3,0,0,1-.19,1.06,15.6,15.6,0,0,1,3-8.89A.27.27,0,0,1,32.29,7.92Zm1.9-2.27a15.7,15.7,0,0,1,5-3.11c-.19.23-.41.47-.41.47s-.41,0-1.18.83a9.51,9.51,0,0,0-.77.83,1.65,1.65,0,0,1-.53.59,1.94,1.94,0,0,0-.59.65l-.65.24-.54-.24s-.47.18-.41-.06C34.14,5.79,34.16,5.72,34.19,5.65ZM41.27,7,41,6.68l.23-.53.57.23V5.32L42.39,5l.45.64.7.77-.47.36L41.84,7V6.41ZM49,12.59c.14-.11.59.18.59.18a9.21,9.21,0,0,1,1.71.47c.24.18.66.3.77.48a6.76,6.76,0,0,1,.59.88c.06.18.36.83.42,1.07a6,6,0,0,0,.41,1.12c.18.3,1.19,1.6,1.54,2.19l1.07-.18a3.21,3.21,0,0,1-.24.71c-.12.18-.47.65-.65.89a4.72,4.72,0,0,1-.77.88c-.35.3-.36.59-.53.83a5.58,5.58,0,0,0-.42.77s.12,1.18.18,1.42-.41.88-.41.88l-.54.54-.71.94.06.89-.84.65c-.29.23-.24.41-.48.65a5.28,5.28,0,0,1-1.4.71c-.23.06-1.54.23-1.54.23v-.53l0-.59a3.78,3.78,0,0,0-.36-.94c-.18-.24-.1-.6-.4-.89a1.82,1.82,0,0,1-.46-.71,2.2,2.2,0,0,1,.06-.71s.24-.65.36-.89a1,1,0,0,0-.12-.82,3.24,3.24,0,0,1-.17-1c0-.18-.48-.47-.66-.65s-.11-.42-.11-.65a6,6,0,0,1-.12-1.18c.06-.42-.53-.12-.89,0s-.59-.12-.59-.48-.65-.06-1.06.18a8.27,8.27,0,0,1-1.36.41.58.58,0,0,1-.71-.17,6.47,6.47,0,0,0-.71-.53,3.84,3.84,0,0,1-.83-.83,5.86,5.86,0,0,1-.89-1.54,5.66,5.66,0,0,1,0-1,4.4,4.4,0,0,1,.06-.94,3.29,3.29,0,0,1,.42-1,3.79,3.79,0,0,1,1-.77c.18-.11.59-.47.59-.7s.24-.36.36-.6.53-.82,1.06-.59a4.75,4.75,0,0,0,.65-.11,8.22,8.22,0,0,0,.88-.36,3.28,3.28,0,0,1,.83-.17,2.92,2.92,0,0,0,.64.18c.18,0,.76-.1.76-.1a8.93,8.93,0,0,1,.26,1c0,.18.18.36.48.48S48.37,13.06,49,12.59Zm6.8,11.59a5.22,5.22,0,0,1-.12.89L55.4,26a2,2,0,0,1-.53.83c-.17.12-.47.47-.65.53s-.29-.41-.23-.65a8.74,8.74,0,0,1,.35-.88s.06-.36.12-.6.77-.53.77-.53l.47-.88A1.85,1.85,0,0,1,55.76,24.18ZM29.52,20.66a.79.79,0,0,1,.34.21,2.17,2.17,0,0,0,.65.41c.3.12.42.3.77.47s.24.07.71.6.42.53.53.82a4.44,4.44,0,0,0,.42.77c.12.18.47.3.65.42a1.38,1.38,0,0,0,.65.23c.18,0,.71.54,1,.59s.3.66.3.66l-.3.82-.23.89.23.71a1.3,1.3,0,0,1-.59.29c-.21,0-.29.14-.53.08A15.74,15.74,0,0,1,29.52,20.66Z" transform="translate(-0.26)" style="fill:rgba(255,255,255,1)"/></g><path d="M4.57,14.73H2.51V8.52H.26V6.72H6.8v1.8H4.57Z" transform="translate(-0.26)" style="fill:#ffffff"/><path d="M12.08,14.73H8V8.93H12a1.94,1.94,0,0,1,1.35.44,1.42,1.42,0,0,1,.47,1.05,1.27,1.27,0,0,1-.28.84,1.4,1.4,0,0,1-.72.48,1.31,1.31,0,0,1,.82.48,1.42,1.42,0,0,1,.31.92,1.49,1.49,0,0,1-.48,1.13A1.92,1.92,0,0,1,12.08,14.73Zm-.54-3.65a.44.44,0,0,0,.29-.1.36.36,0,0,0,.11-.26.37.37,0,0,0-.11-.27.44.44,0,0,0-.29-.09H9.89v.72Zm.08,2.22a.52.52,0,0,0,.33-.11.41.41,0,0,0,0-.58.48.48,0,0,0-.33-.12H9.89v.81Z" transform="translate(-0.26)" style="fill:#ffffff"/><path d="M18.34,14.87A3.07,3.07,0,0,1,16,14a3.13,3.13,0,0,1,0-4.31,3.07,3.07,0,0,1,2.3-.88,3.07,3.07,0,0,1,2.3.88,2.93,2.93,0,0,1,.86,2.15A3,3,0,0,1,20.64,14,3.07,3.07,0,0,1,18.34,14.87Zm-.92-2a1.14,1.14,0,0,0,.92.4,1.19,1.19,0,0,0,.93-.4,1.57,1.57,0,0,0,.34-1,1.53,1.53,0,0,0-.34-1,1.16,1.16,0,0,0-.93-.4,1.11,1.11,0,0,0-.92.4,1.53,1.53,0,0,0-.33,1A1.56,1.56,0,0,0,17.42,12.84Z" transform="translate(-0.26)" style="fill:#ffffff"/><path d="M24.54,14.73H22.78V8.93h1.84v3l2.07-3h1.86v5.8H26.7v-3.2Zm3.23-7.4a2.47,2.47,0,0,1-2.1,1.06,2.51,2.51,0,0,1-2.11-1.06l.79-.64a1.57,1.57,0,0,0,1.32.69A1.51,1.51,0,0,0,27,6.69Z" transform="translate(-0.26)" style="fill:#ffffff"/><path d="M37.61,14.73h-4V8.93H37.5a1.94,1.94,0,0,1,1.35.44,1.39,1.39,0,0,1,.47,1.05,1.32,1.32,0,0,1-.27.84,1.48,1.48,0,0,1-.72.48,1.28,1.28,0,0,1,.81.48,1.43,1.43,0,0,1,.32.92A1.49,1.49,0,0,1,39,14.27,1.94,1.94,0,0,1,37.61,14.73Zm-.54-3.65a.46.46,0,0,0,.29-.1.35.35,0,0,0,.1-.26.36.36,0,0,0-.1-.27.46.46,0,0,0-.29-.09H35.41v.72Zm.07,2.22a.49.49,0,0,0,.33-.11.39.39,0,0,0,0-.58.45.45,0,0,0-.33-.12H35.41v.81Z" transform="translate(-0.26)" style="fill:#ffffff"/><path d="M42.85,14.73H41.09V8.93h1.85v3l2.06-3h1.86v5.8H45v-3.2Z" transform="translate(-0.26)" style="fill:#ffffff"/><path d="M50.65,14.87A3.8,3.8,0,0,1,47.92,14l.82-1.1a3.09,3.09,0,0,0,1.91.6q1,0,1-.45c0-.34-.35-.51-1-.51H49.43V11.11h1.14q.93,0,.93-.48c0-.12-.08-.23-.25-.31a1.56,1.56,0,0,0-.66-.12,2.36,2.36,0,0,0-1.71.63L48,9.77a3.38,3.38,0,0,1,2.51-1,4.25,4.25,0,0,1,2.15.42,1.35,1.35,0,0,1,.76,1.19,1.09,1.09,0,0,1-.44.86,2.11,2.11,0,0,1-1.06.48,2,2,0,0,1,1.11.41,1.16,1.16,0,0,1,.5,1,1.41,1.41,0,0,1-.77,1.26A4.07,4.07,0,0,1,50.65,14.87Z" transform="translate(-0.26)" style="fill:#ffffff"/><path d="M57.55,14.87A3.05,3.05,0,0,1,55.26,14a3,3,0,0,1-.86-2.16,2.93,2.93,0,0,1,.86-2.15,3.43,3.43,0,0,1,4.59,0,2.94,2.94,0,0,1,.87,2.15A3,3,0,0,1,59.85,14,3.06,3.06,0,0,1,57.55,14.87Zm-.92-2a1.15,1.15,0,0,0,.92.4,1.19,1.19,0,0,0,.93-.4,1.51,1.51,0,0,0,.34-1,1.48,1.48,0,0,0-.34-1,1.16,1.16,0,0,0-.93-.4,1.12,1.12,0,0,0-.92.4,1.53,1.53,0,0,0-.33,1A1.56,1.56,0,0,0,56.63,12.84Z" transform="translate(-0.26)" style="fill:#ffffff"/><path d="M66,14.73H62V8.93h3.94a1.94,1.94,0,0,1,1.35.44,1.42,1.42,0,0,1,.47,1.05,1.27,1.27,0,0,1-.28.84,1.4,1.4,0,0,1-.72.48,1.31,1.31,0,0,1,.82.48,1.42,1.42,0,0,1,.31.92,1.49,1.49,0,0,1-.48,1.13A1.92,1.92,0,0,1,66,14.73Zm-.54-3.65a.44.44,0,0,0,.29-.1.36.36,0,0,0,.11-.26.37.37,0,0,0-.11-.27.44.44,0,0,0-.29-.09H63.84v.72Zm.08,2.22a.52.52,0,0,0,.33-.11.41.41,0,0,0,0-.58.48.48,0,0,0-.33-.12H63.84v.81Z" transform="translate(-0.26)" style="fill:#ffffff"/><path d="M69.51,8.93h1.85v1.86h1.91a2.11,2.11,0,0,1,1.56.56,1.94,1.94,0,0,1,.55,1.41,1.91,1.91,0,0,1-.57,1.4,2.08,2.08,0,0,1-1.54.57H69.51ZM73,12.28H71.36v1H73a.64.64,0,0,0,.4-.13.43.43,0,0,0,.16-.35.42.42,0,0,0-.16-.35A.58.58,0,0,0,73,12.28Zm4.9,2.45H76V8.93h1.84Z" transform="translate(-0.26)" style="fill:#ffffff"/><path d="M81.26,14.73H79.5V8.93h1.85v3l2.06-3h1.86v5.8H83.42v-3.2Zm3.23-7.4a2.47,2.47,0,0,1-2.1,1.06,2.51,2.51,0,0,1-2.11-1.06l.79-.64a1.57,1.57,0,0,0,1.32.69,1.49,1.49,0,0,0,1.31-.69Z" transform="translate(-0.26)" style="fill:#ffffff"/><path d="M32.59,27.54V26.06H28V20.27h1.84v4.19H32V20.27H33.8v4.19h.63v3.08Z" transform="translate(-0.26)" style="fill:#ffffff"/><path d="M38.37,26.21a3.2,3.2,0,0,1-2.27-.84,2.86,2.86,0,0,1-.9-2.21A3,3,0,0,1,36.07,21a3,3,0,0,1,2.22-.88,2.78,2.78,0,0,1,2.13.89,3.28,3.28,0,0,1,.83,2.34v.4H37.12a1.2,1.2,0,0,0,.47.73,1.55,1.55,0,0,0,1,.3,2.69,2.69,0,0,0,.78-.14,1.7,1.7,0,0,0,.66-.35l.78,1.15a2.73,2.73,0,0,1-1.07.57A4.74,4.74,0,0,1,38.37,26.21Zm1.12-3.66a1.25,1.25,0,0,0-.34-.69,1.32,1.32,0,0,0-1.69,0,1.39,1.39,0,0,0-.36.7Z" transform="translate(-0.26)" style="fill:#ffffff"/><path d="M44.31,26.06H42.46V20.27h1.85v2h2.08v-2h1.84v5.79H46.39V23.87H44.31Z" transform="translate(-0.26)" style="fill:#ffffff"/><path d="M52.83,26.06H51V21.88H49.4V20.27h5v1.61H52.83Z" transform="translate(-0.26)" style="fill:#ffffff"/><path d="M59.13,26.21a2.18,2.18,0,0,1-1.72-.83v2.89H55.56v-8h1.85v.67a2.15,2.15,0,0,1,1.72-.82,2.31,2.31,0,0,1,1.83.81,3.21,3.21,0,0,1,.71,2.23A3.22,3.22,0,0,1,61,25.4,2.31,2.31,0,0,1,59.13,26.21Zm-.61-1.63a1.2,1.2,0,0,0,.91-.39,1.64,1.64,0,0,0,0-2.05,1.19,1.19,0,0,0-.91-.38,1.45,1.45,0,0,0-.62.15,1.2,1.2,0,0,0-.49.38v1.76a1.29,1.29,0,0,0,.49.38A1.45,1.45,0,0,0,58.52,24.58Z" transform="translate(-0.26)" style="fill:#ffffff"/></svg>